<svg xmlns="http://www.w3.org/2000/svg" width="61.494" height="60" viewBox="0 0 61.494 60">
  <g id="calendar-09" transform="translate(0.1 505.756)">
    <path id="Path_2" data-name="Path 2" d="M8.856-505.581A3.651,3.651,0,0,0,6.4-501.8v.816h-.54A6.15,6.15,0,0,0,.044-496.2c-.192.9-.192,44.77,0,45.67a6.2,6.2,0,0,0,4.646,4.646c.432.1,3.818.132,10.721.132,10.949,0,10.577.024,10.889-.66a1.509,1.509,0,0,0,.144-.552,1.452,1.452,0,0,0-.564-1.02c-.12-.06-4.862-.132-10.541-.168l-10.325-.06-.684-.336a3.611,3.611,0,0,1-1.7-1.753l-.252-.552-.036-18.585-.024-18.573H58.981l-.024,18.573-.036,18.585-.336.684a3.611,3.611,0,0,1-1.753,1.7c-.54.252-.7.252-10.877.312-5.679.036-10.421.108-10.541.168a1.452,1.452,0,0,0-.564,1.02,1.509,1.509,0,0,0,.144.552c.312.684-.06.66,10.889.66,6.9,0,10.289-.036,10.721-.132a6.2,6.2,0,0,0,4.646-4.646c.192-.9.192-44.77,0-45.67a6.147,6.147,0,0,0-5.8-4.778h-.528l-.048-1.057a3.59,3.59,0,0,0-2.125-3.434,3.928,3.928,0,0,0-3.037.084,3.5,3.5,0,0,0-1.993,3.35l-.048,1.057h-13.4l-.048-1.057a3.5,3.5,0,0,0-1.993-3.35,3.928,3.928,0,0,0-3.037-.084,3.59,3.59,0,0,0-2.125,3.434l-.048,1.057h-13.4l-.048-1.057a3.807,3.807,0,0,0-.924-2.581A3.754,3.754,0,0,0,8.856-505.581Zm1.729,2.365c.564.3.612.588.612,3.446a10.257,10.257,0,0,1-.168,2.977,1.194,1.194,0,0,1-2.065,0,24.9,24.9,0,0,1,0-5.979A1.191,1.191,0,0,1,10.585-503.216Zm20.65,0c.564.3.612.588.612,3.446a10.257,10.257,0,0,1-.168,2.977,1.194,1.194,0,0,1-2.065,0,24.9,24.9,0,0,1,0-5.979A1.191,1.191,0,0,1,31.235-503.216Zm20.65,0c.564.3.612.588.612,3.446a10.257,10.257,0,0,1-.168,2.977,1.194,1.194,0,0,1-2.065,0,24.9,24.9,0,0,1,0-5.979A1.191,1.191,0,0,1,51.885-503.216ZM6.419-497.525a3.59,3.59,0,0,0,2.125,3.434,4.171,4.171,0,0,0,2.905,0,3.59,3.59,0,0,0,2.125-3.434l.048-1.056h13.4l.048,1.044a3.817,3.817,0,0,0,.924,2.593,3.717,3.717,0,0,0,4.238.768,3.507,3.507,0,0,0,1.993-3.362l.048-1.044h13.4l.048,1.044a3.507,3.507,0,0,0,1.993,3.362,3.928,3.928,0,0,0,3.037.084,3.6,3.6,0,0,0,2.125-3.446l.06-1.081.684.072a3.5,3.5,0,0,1,2.965,1.981c.336.684.336.708.372,3.41l.036,2.737H2.313v-2.5c0-2.773.1-3.35.708-4.19a3.764,3.764,0,0,1,2.845-1.477h.5Z" transform="translate(0)" fill="#fff"/>
    <path id="Path_3" data-name="Path 3" d="M206.612-313.88c-.6.336-.6.384-.612,5.8a37.017,37.017,0,0,0,.144,5.379c.3.648.372.66,5.859.66s5.559-.012,5.859-.66a36.924,36.924,0,0,0,.144-5.355c0-5.475-.012-5.547-.66-5.847A88.9,88.9,0,0,0,206.612-313.88Zm8.992,5.835v3.6h-7.2v-7.2h7.2Z" transform="translate(-181.356 -168.686)" fill="#fff"/>
    <path id="Path_4" data-name="Path 4" d="M350.612-313.88c-.6.336-.6.384-.612,5.8a37.017,37.017,0,0,0,.144,5.379c.3.648.372.66,5.859.66s5.559-.012,5.859-.66a36.921,36.921,0,0,0,.144-5.355c0-5.475-.012-5.547-.66-5.847A88.9,88.9,0,0,0,350.612-313.88Zm8.992,5.835v3.6h-7.2v-7.2h7.2Z" transform="translate(-308.068 -168.686)" fill="#fff"/>
    <path id="Path_5" data-name="Path 5" d="M72.411-285.813c-.132.072-1.465,1.357-2.965,2.845l-2.737,2.713-1.345-1.333A8.433,8.433,0,0,0,63.671-283a1.189,1.189,0,0,0-1.465,1.465,24.071,24.071,0,0,0,4.166,4.178,1.532,1.532,0,0,0,.66,0,82.006,82.006,0,0,0,6.951-6.807,1.477,1.477,0,0,0,.168-.564A1.226,1.226,0,0,0,72.411-285.813Z" transform="translate(-54.791 -193.428)" fill="#fff"/>
    <path id="Path_6" data-name="Path 6" d="M62.612-169.88c-.6.336-.6.384-.612,5.8,0,5.451.012,5.559.612,5.871a76.933,76.933,0,0,0,10.781,0c.6-.312.612-.432.612-5.847,0-5.475-.012-5.547-.66-5.847A88.9,88.9,0,0,0,62.612-169.88Zm8.992,5.835v3.6H64.4v-7.2h7.2Z" transform="translate(-54.644 -295.398)" fill="#fff"/>
    <path id="Path_7" data-name="Path 7" d="M216.132-141.811c-.168.108-1.5,1.393-2.965,2.857L210.49-136.3l-1.285-1.285a17.021,17.021,0,0,0-1.561-1.4,1.019,1.019,0,0,0-1.309.276c-.8.8-.588,1.2,1.9,3.638,1.633,1.6,1.969,1.813,2.593,1.657a83.735,83.735,0,0,0,6.939-6.807A1.175,1.175,0,0,0,216.132-141.811Z" transform="translate(-181.283 -320.081)" fill="#fff"/>
    <path id="Path_8" data-name="Path 8" d="M360.411-141.813c-.132.072-1.465,1.357-2.965,2.845l-2.737,2.713-1.345-1.333A8.433,8.433,0,0,0,351.671-139a1.189,1.189,0,0,0-1.465,1.465,23.728,23.728,0,0,0,4.178,4.178,1.531,1.531,0,0,0,.66,0,83.739,83.739,0,0,0,6.939-6.807,1.477,1.477,0,0,0,.168-.564A1.226,1.226,0,0,0,360.411-141.813Z" transform="translate(-308.214 -320.139)" fill="#fff"/>
    <path id="Path_9" data-name="Path 9" d="M246.8-25.71a1.2,1.2,0,0,0,.588,2.233,1.27,1.27,0,0,0,1.2-1.189A1.209,1.209,0,0,0,246.8-25.71Z" transform="translate(-216.74 -422.279)" fill="#fff"/>
  </g>
</svg>
