<svg xmlns="http://www.w3.org/2000/svg" width="20.184" height="20" viewBox="0 0 20.184 20">
  <path id="eita" d="M54.739,48.251a12.539,12.539,0,0,0-6.776,4.882c-2.579,3.613-3.367,8.208-1.894,11.146A7.074,7.074,0,0,0,50.819,67.9a10.387,10.387,0,0,0,4.278-.041c2.395-.686,4.37-2.323,6.9-5.732a27.834,27.834,0,0,1,2.815-3.562l.706-.716-.031-.809-.031-.8-.563.44c-.307.246-1.412,1.32-2.456,2.385A17.516,17.516,0,0,1,57.9,62.826a5.652,5.652,0,0,1-3.91.563c-.389-.082-.727-.154-.737-.154a9.325,9.325,0,0,0-.5,1.934c-.061.6-.072.624-.338.553a4.549,4.549,0,0,1-1.75-1.013,4.32,4.32,0,0,1-1.238-2.344,1.82,1.82,0,0,0-.6-1.249,2.974,2.974,0,0,1-.972-2.344,2.686,2.686,0,0,1,.4-1.617,9.175,9.175,0,0,1,7.185-4.442,4.63,4.63,0,0,1,2.733.522,3.406,3.406,0,0,1,1.474,1.494c.174.686-.9,1.6-2.538,2.129a7.213,7.213,0,0,1-3.367.44c-1.218-.2-1.689-.665-1.689-1.648v-.583l-.256.133a3.431,3.431,0,0,0-1.085,1.085,2.284,2.284,0,0,0,.215,2.528l.358.409-.2.256A3.518,3.518,0,0,0,50.6,63c.266.583,1.116,1.566,1.351,1.566.061,0,.143-.215.174-.471a4.416,4.416,0,0,1,.42-1.218c.635-1.279,1.525-1.945,4.575-3.367a7.788,7.788,0,0,0,3.04-1.945,5.488,5.488,0,0,0,1.351-3.92,9.325,9.325,0,0,0-.113-1.484,5.4,5.4,0,0,0-6.663-3.91Z" transform="translate(-45.333 -48.105)" fill="#fbf7eb"/>
</svg>
