<svg xmlns="http://www.w3.org/2000/svg" width="25.141" height="20" viewBox="0 0 25.141 20">
  <g id="home" transform="translate(0.136 459.469)">
    <path id="Path_65" data-name="Path 65" d="M12.078-459.446a2.234,2.234,0,0,0-.491.167c-.152.079-2.552,2.042-5.949,4.879-6,5-5.831,4.849-5.753,5.173a5.888,5.888,0,0,0,.6.785c.471.56.594.677.731.707a.694.694,0,0,0,.27,0c.054-.015,2.538-2.062,5.512-4.54s5.424-4.516,5.438-4.516,2.459,2.032,5.438,4.516,5.458,4.526,5.512,4.54a.694.694,0,0,0,.27,0c.137-.029.26-.147.731-.707a5.889,5.889,0,0,0,.6-.785c.074-.3.015-.363-1.8-1.875l-1.742-1.453-.025-3.3-.025-3.3-.137-.133-.133-.137-1.585-.015a14.077,14.077,0,0,0-1.757.034c-.334.1-.334.108-.348,1.895l-.015,1.605-2-1.669c-2.145-1.792-2.209-1.836-2.808-1.89A2.33,2.33,0,0,0,12.078-459.446Z" transform="translate(0)" fill="#e08125"/>
    <path id="Path_66" data-name="Path 66" d="M77.476-373.024,73-369.333v3.828c0,2.636.02,3.9.054,4.03a1.087,1.087,0,0,0,.7.653c.157.044,1.119.059,3.22.059h3v-5.988h4.025v5.988h3q3,0,3.205-.054a1.087,1.087,0,0,0,.672-.555c.088-.191.093-.412.093-4.084v-3.878L86.5-373.01c-2.449-2.022-4.476-3.681-4.5-3.691S79.94-375.056,77.476-373.024Z" transform="translate(-69.546 -78.705)" fill="#e08125"/>
  </g>
</svg>
