<svg xmlns="http://www.w3.org/2000/svg" width="20" height="20" viewBox="0 0 20 20">
  <g id="instagram" transform="translate(0.009 -0.026)">
    <path id="Path_58" data-name="Path 58" d="M254.562,249.088a5.132,5.132,0,1,0,5.132,5.132A5.131,5.131,0,0,0,254.562,249.088Zm0,8.462a3.331,3.331,0,1,1,3.331-3.331A3.33,3.33,0,0,1,254.562,257.55Z" transform="translate(-244.567 -244.197)" fill="#fbf7eb"/>
    <path id="Path_59" data-name="Path 59" d="M14.115.089c-1.84-.086-6.4-.082-8.239,0a5.976,5.976,0,0,0-4.2,1.617C-.244,3.63,0,6.222,0,10.022c0,3.89-.217,6.422,1.677,8.316,1.931,1.93,4.56,1.677,8.316,1.677,3.853,0,5.183,0,6.546-.525,1.852-.719,3.251-2.375,3.387-5.349.087-1.841.082-6.4,0-8.239C19.763,2.392,17.879.263,14.115.089Zm2.912,16.976c-1.261,1.261-3.01,1.148-7.057,1.148-4.167,0-5.837.062-7.057-1.161-1.4-1.4-1.15-3.642-1.15-7.044,0-4.6-.472-7.92,4.148-8.157,1.062-.037,1.374-.05,4.047-.05L10,1.828c4.441,0,7.925-.465,8.134,4.155.048,1.054.058,1.371.058,4.039,0,4.118.077,5.8-1.162,7.044Z" transform="translate(0 0)" fill="#fbf7eb"/>
    <path id="Path_60" data-name="Path 60" d="M726.324,178.522a1.2,1.2,0,1,1-1.2-1.2A1.2,1.2,0,0,1,726.324,178.522Z" transform="translate(-709.796 -173.834)" fill="#fbf7eb"/>
  </g>
</svg>
