<svg xmlns="http://www.w3.org/2000/svg" width="60.033" height="60" viewBox="0 0 60.033 60">
  <g id="online-learning" transform="translate(0 511.719)">
    <path id="Path_10" data-name="Path 10" d="M.762-511.647a1.814,1.814,0,0,0-.469.363c-.235.258-.235.446-.27,11.092L0-489.369l.34.387.34.387H11.631l.352-.4c.293-.328.34-.457.281-.809a1.489,1.489,0,0,0-.363-.715l-.293-.3-4.631-.035-4.631-.035v-18.526l5.98.035,5.98.035.317.328.328.317.059,7.95c.035,4.362.106,8.032.164,8.149a1.421,1.421,0,0,0,1.008.551,1.421,1.421,0,0,0,1.008-.551c.059-.117.129-3.787.164-8.149l.059-7.95.328-.317.317-.328,5.98-.035,5.98-.035V-498.6l.4.4a.942.942,0,0,0,1.548,0l.41-.41-.035-6.214-.035-6.226-.328-.317-.317-.328H24.646c-7,0-7,0-7.528.258a5.482,5.482,0,0,0-.727.41c-.176.117-.246.117-.41,0a6.791,6.791,0,0,0-.739-.41c-.528-.258-.551-.258-7.387-.281C4.08-511.729.891-511.694.762-511.647Z" fill="#fff"/>
    <path id="Path_11" data-name="Path 11" d="M37.772-466.924a1.169,1.169,0,0,0,.047,2.04,36.361,36.361,0,0,0,6.965-.023,1.166,1.166,0,0,0,0-2.017A35.03,35.03,0,0,0,37.772-466.924Z" transform="translate(-32.836 -39.388)" fill="#fff"/>
    <path id="Path_12" data-name="Path 12" d="M165.772-466.924a1.169,1.169,0,0,0,.047,2.04,36.36,36.36,0,0,0,6.965-.023,1.166,1.166,0,0,0,0-2.017A35.03,35.03,0,0,0,165.772-466.924Z" transform="translate(-145.828 -39.388)" fill="#fff"/>
    <path id="Path_13" data-name="Path 13" d="M325.473-457.749a2.951,2.951,0,0,0-1.255.856c-1.067,1.067-1.044.915-1.044,7.68v5.745l-1.454,1.477a9.264,9.264,0,0,0-1.536,1.794c-.152.6.059.938,1.536,2.427l1.454,1.477v.586a3.215,3.215,0,0,0,1.044,2.521c1.079,1.079.8,1.044,8.688,1.044s7.61.035,8.688-1.044c1.1-1.114,1.044-.4,1.044-11.854s.059-10.74-1.044-11.854c-1.09-1.079-.786-1.044-8.735-1.032C327.138-457.925,325.954-457.889,325.473-457.749Zm14.492,2.486.27.27v19.909l-.27.27-.27.27H326.118l-.27-.258c-.211-.223-.27-.446-.328-1.372a4.119,4.119,0,0,0-.235-1.325c-.094-.117-.633-.7-1.219-1.29l-1.055-1.09,1.126-1.149a9.023,9.023,0,0,0,1.266-1.477c.07-.211.117-2.415.117-6.261,0-4.538.035-6.015.152-6.238.293-.586.246-.586,7.375-.551l6.648.023Z" transform="translate(-282.606 -47.484)" fill="#fff"/>
    <path id="Path_14" data-name="Path 14" d="M395.772-401.867a1.169,1.169,0,0,0,.047,2.04,42.306,42.306,0,0,0,6.894.012,1.173,1.173,0,0,0,.668-1.044,1.173,1.173,0,0,0-.668-1.044A40.357,40.357,0,0,0,395.772-401.867Z" transform="translate(-348.86 -96.824)" fill="#fff"/>
    <path id="Path_15" data-name="Path 15" d="M395.772-357.867a1.169,1.169,0,0,0,.047,2.04,42.309,42.309,0,0,0,6.894.012,1.173,1.173,0,0,0,.668-1.044,1.173,1.173,0,0,0-.668-1.044A40.354,40.354,0,0,0,395.772-357.867Z" transform="translate(-348.86 -135.665)" fill="#fff"/>
    <path id="Path_16" data-name="Path 16" d="M395.772-313.867a1.169,1.169,0,0,0,.047,2.04,42.306,42.306,0,0,0,6.894.012,1.173,1.173,0,0,0,.668-1.044,1.173,1.173,0,0,0-.668-1.044A40.357,40.357,0,0,0,395.772-313.867Z" transform="translate(-348.86 -174.506)" fill="#fff"/>
    <path id="Path_17" data-name="Path 17" d="M37.772-422.924a1.169,1.169,0,0,0,.047,2.04,36.361,36.361,0,0,0,6.965-.023,1.166,1.166,0,0,0,0-2.017A35.03,35.03,0,0,0,37.772-422.924Z" transform="translate(-32.836 -78.229)" fill="#fff"/>
    <path id="Path_18" data-name="Path 18" d="M165.772-422.924a1.169,1.169,0,0,0,.047,2.04,36.36,36.36,0,0,0,6.965-.023,1.166,1.166,0,0,0,0-2.017A35.03,35.03,0,0,0,165.772-422.924Z" transform="translate(-145.828 -78.229)" fill="#fff"/>
    <path id="Path_19" data-name="Path 19" d="M37.772-378.924a1.169,1.169,0,0,0,.047,2.04,36.361,36.361,0,0,0,6.965-.023,1.166,1.166,0,0,0,0-2.017A35.03,35.03,0,0,0,37.772-378.924Z" transform="translate(-32.836 -117.07)" fill="#fff"/>
    <path id="Path_20" data-name="Path 20" d="M256.75-378.678a1.423,1.423,0,0,0-.75,1.09,1.086,1.086,0,0,0,.4.75.948.948,0,0,0,1.5.059.879.879,0,0,0,.387-.821A1.154,1.154,0,0,0,256.75-378.678Z" transform="translate(-225.984 -117.374)" fill="#fff"/>
    <path id="Path_21" data-name="Path 21" d="M69.553-363.525a8.427,8.427,0,0,0-6.414,6.261,28.306,28.306,0,0,0,.047,6.683,9.122,9.122,0,0,0,1.606,3.131l.563.715-1.044.129a11.241,11.241,0,0,0-6.625,3.213,11.473,11.473,0,0,0-3.447,6.707c-.082.645-.117,3.154-.094,7.938l.035,7.012.328.317.317.328,26.089.035,26.089.023.375-.34.387-.34V-340.2l-.27-.668a5.555,5.555,0,0,0-3.049-3.049l-.668-.27H76.225l-.668.27a5.555,5.555,0,0,0-3.049,3.049l-.27.668-.035,8.419-.035,8.407H63.984l-.035-3.4-.035-3.4-.328-.317a1.09,1.09,0,0,0-1.571,0l-.328.317-.035,3.4-.035,3.4H56.456l.035-6.66c.047-6.5.047-6.672.3-7.5a9.372,9.372,0,0,1,8.384-6.812c1.114-.106,1.513-.328,1.665-.915.035-.152.106-.27.152-.246a7.823,7.823,0,0,0,4.3,1.079,6.009,6.009,0,0,0,2.31-.3,8.5,8.5,0,0,0,5.5-5.487,9.678,9.678,0,0,0,.317-3.307c.059-3.119-.07-3.951-.891-5.6a8.182,8.182,0,0,0-4.925-4.186A8.837,8.837,0,0,0,69.553-363.525Zm2.92,2.333a6.037,6.037,0,0,1,4.456,4.362,21.177,21.177,0,0,1,0,5.581,5.918,5.918,0,0,1-7.035,4.362,6.076,6.076,0,0,1-4.35-4.045,9.412,9.412,0,0,1-.223-3.107,9.461,9.461,0,0,1,.223-3.107A5.97,5.97,0,0,1,72.473-361.192Zm31.248,19.534A2.758,2.758,0,0,1,105.2-340.2l.281.586v11.549H99.617l-.363.328a1.107,1.107,0,0,0-.059,1.642l.3.317,2.99.035,2.99.035v2.333H74.525V-331.5c0-7.914.012-8.126.246-8.641a2.758,2.758,0,0,1,1.454-1.477l.586-.281H90C103.017-341.9,103.2-341.892,103.72-341.658Z" transform="translate(-47.791 -130.686)" fill="#fff"/>
    <path id="Path_22" data-name="Path 22" d="M325.551-139.606a4.472,4.472,0,0,0-3.119,5.335,4.418,4.418,0,0,0,6.754,2.6,4.4,4.4,0,0,0,.176-7.2A4.518,4.518,0,0,0,325.551-139.606Zm2.111,2.427a2.049,2.049,0,0,1,0,3.693,1.853,1.853,0,0,1-1.876,0,2.049,2.049,0,0,1,0-3.693,2.573,2.573,0,0,1,.938-.258A2.573,2.573,0,0,1,327.662-137.179Z" transform="translate(-284.513 -328.353)" fill="#fff"/>
    <path id="Path_23" data-name="Path 23" d="M396.461-59.6a1.139,1.139,0,0,0,.973,2.052,1.055,1.055,0,0,0,.692-1.079A1.117,1.117,0,0,0,396.461-59.6Z" transform="translate(-349.467 -398.974)" fill="#fff"/>
  </g>
</svg>
