<svg xmlns="http://www.w3.org/2000/svg" width="19.959" height="20" viewBox="0 0 19.959 20">
  <g id="soroush" transform="translate(-0.088 -0.235)">
    <path id="Path_61" data-name="Path 61" d="M9.622.238a10.7,10.7,0,0,0-3.25.723A12.223,12.223,0,0,0,4.89,1.7,10.287,10.287,0,0,0,3.1,3.1a9.988,9.988,0,0,0-2.961,6.1,10.92,10.92,0,0,0,.022,2.25,11.248,11.248,0,0,0,.764,2.818,5.123,5.123,0,0,0,1.71,2.179,2.9,2.9,0,0,0,1.117.448,2.38,2.38,0,0,0,.646.055,2.5,2.5,0,0,0,.617-.045,3.393,3.393,0,0,0,1.231-.507,3.1,3.1,0,0,0,1.5-2.513,5.853,5.853,0,0,0-.569-2.486A16.976,16.976,0,0,1,6.062,7.206a11.64,11.64,0,0,1,0-1.885,7.288,7.288,0,0,1,.711-2.413A3.857,3.857,0,0,1,7.788,1.575,5.638,5.638,0,0,1,12.239.5a1.67,1.67,0,0,0,.228.022A7.315,7.315,0,0,0,11.637.35,8.786,8.786,0,0,0,10.274.238c-.285,0-.579,0-.652,0Z" transform="translate(0 0)" fill="#fbf7eb"/>
    <path id="Path_62" data-name="Path 62" d="M317.069,7.859a.041.041,0,0,0,.039,0c.008-.006,0-.012-.026-.01S317.053,7.853,317.069,7.859Z" transform="translate(-304.558 -7.314)" fill="#fbf7eb"/>
    <path id="Path_63" data-name="Path 63" d="M106.09,23.466a2.111,2.111,0,0,0-1.683,1.516,2.158,2.158,0,0,0,.275,1.746,5.006,5.006,0,0,0,1.129,1.058,11.8,11.8,0,0,1,1.28,1.117,7.625,7.625,0,0,1,.946,10.454,5.475,5.475,0,0,1-2.183,1.742,8.519,8.519,0,0,1-5.861.693,9.619,9.619,0,0,1-3.118-1.441c-.23-.161-.147-.073.12.128a10.6,10.6,0,0,0,4.457,1.914,9.365,9.365,0,0,0,2.708.061,10.246,10.246,0,0,0,3.534-1.145l.281-.153,1.814.483c1,.267,1.816.481,1.82.477s-.1-.854-.226-1.891-.232-1.914-.234-1.946.039-.126.169-.326a9.971,9.971,0,0,0,1.559-4.432,12.8,12.8,0,0,0,0-1.977,9.95,9.95,0,0,0-1.92-4.962,11.138,11.138,0,0,0-2.126-2.132,6.46,6.46,0,0,0-1.512-.86A2.4,2.4,0,0,0,106.09,23.466Z" transform="translate(-92.867 -22.29)" fill="#fbf7eb"/>
  </g>
</svg>
