<svg xmlns="http://www.w3.org/2000/svg" width="58.131" height="60" viewBox="0 0 58.131 60">
  <g id="team" transform="translate(-8.075 511.69)">
    <path id="Path_27" data-name="Path 27" d="M34.737-511.563a6.945,6.945,0,0,0-5.17,4.947,8.144,8.144,0,0,0-.059,3.329,7.673,7.673,0,0,0,1.676,3.107c.387.422.633.762.551.762a13.557,13.557,0,0,0-3.224,1.735,18.259,18.259,0,0,0-1.934,1.759l-1,1.079h-.645a3.864,3.864,0,0,1-4-3.822,3.781,3.781,0,0,1,3.2-3.81,2.477,2.477,0,0,1,1.665.117c.469.141.985.293,1.172.328a1.1,1.1,0,0,0,1.2-.633.81.81,0,0,0,.035-.844c-.129-.352-.281-.492-.914-.809a6.048,6.048,0,0,0-6.87,1.243,6.137,6.137,0,0,0-.211,8.582l.41.457-1.055.539a11.865,11.865,0,0,0-6.131,7.55c-.234.821-.258,1.243-.3,5.205-.047,4.689-.023,4.877.574,5.182a1.079,1.079,0,0,0,1.079.047c.6-.27.61-.328.68-4.971.07-4.619.082-4.678.727-6.249a9.729,9.729,0,0,1,7.327-5.627c.657-.094.727-.082.668.082a18.365,18.365,0,0,0-.832,2.8c-.234,1.243-.234,14.209,0,15.112a6.926,6.926,0,0,0,2.872,3.834,9.387,9.387,0,0,0,2.626.95l.434.07v15.463H26.12v-6.319c0-3.47-.035-6.471-.07-6.682a1.132,1.132,0,0,0-1.934-.61l-.34.34v13.271H20.845v-14.514c0-11.325-.035-14.561-.152-14.8a1.413,1.413,0,0,0-.586-.5c-.422-.211-.445-.211-.868,0a1.413,1.413,0,0,0-.586.5c-.117.234-.152,3.47-.152,14.8v14.514H13.74a37.911,37.911,0,0,0-5.006.129,1.155,1.155,0,0,0,0,2.087c.363.188,56.449.188,56.812,0a1.155,1.155,0,0,0,0-2.087,43.683,43.683,0,0,0-5.416-.129H54.96v-14.467c0-8.922-.047-14.584-.117-14.772a1.216,1.216,0,0,0-1.149-.692.942.942,0,0,0-.75.375l-.328.363v29.192h-3.4v-6.507c0-6.975,0-7.011-.574-7.327a1.194,1.194,0,0,0-1.641.61c-.082.246-.129,2.509-.129,6.788v6.436H44.058l.023-7.761.035-7.761.75-.152a6.6,6.6,0,0,0,4.9-4.549c.2-.645.211-1.231.211-7.444,0-7.374-.012-7.585-.7-9.637L48.9-492.5l.481.07a10.064,10.064,0,0,1,6.225,3.329,8.563,8.563,0,0,1,1.723,3,8.541,8.541,0,0,1,.457,2.849c.047,1.008.094,3,.106,4.443a18.186,18.186,0,0,0,.117,2.849,1.5,1.5,0,0,0,1.1.574,1.321,1.321,0,0,0,.68-.34l.387-.34.035-2.333a35.059,35.059,0,0,0-.492-7.925A11.9,11.9,0,0,0,53.1-493.8c-.492-.2-.9-.375-.914-.387a3.5,3.5,0,0,1,.434-.586,6.11,6.11,0,0,0-.469-8.3,5.873,5.873,0,0,0-5.346-1.712,3.775,3.775,0,0,0-2.216.961,1.213,1.213,0,0,0,.574,1.77c.246.082.5.047,1.149-.176a3.97,3.97,0,0,1,4.174.762,3.88,3.88,0,0,1,.961,4.091,3.931,3.931,0,0,1-3.224,2.485l-.7.07-.68-.809a13.268,13.268,0,0,0-5.416-3.8l-.657-.246.445-.481a7.35,7.35,0,0,0,1.442-2.356,6.881,6.881,0,0,0-4.22-8.816A7.642,7.642,0,0,0,34.737-511.563Zm3.13,2.532a4.725,4.725,0,0,1,2.591,2.7,4.5,4.5,0,0,1-2.38,5.557,4.482,4.482,0,0,1-6.319-4.76,4.189,4.189,0,0,1,1.149-2.356A4.441,4.441,0,0,1,37.867-509.03Zm.739,11.266a11.026,11.026,0,0,1,8.476,7.2c.539,1.618.551,1.759.551,8.793v6.682l-.34.727a4.29,4.29,0,0,1-.9,1.266,4.4,4.4,0,0,1-2.063,1.114h-.27v-15.241l-.34-.375a1.076,1.076,0,0,0-1.63-.059l-.317.317-.035,16.647-.023,16.647h-4.22v-16.788l-.34-.34a1.113,1.113,0,0,0-1.887.574c-.07.281-.117,3.329-.117,8.488v8.066H31.631l-.023-16.636-.035-16.636-.281-.3a1.326,1.326,0,0,0-.61-.363,1.3,1.3,0,0,0-1.266.6c-.094.211-.129,2.462-.129,7.89v7.6l-.457-.082a4.258,4.258,0,0,1-3.048-2.532c-.234-.621-.246-.868-.246-7.245,0-5.616.023-6.753.188-7.527a10.756,10.756,0,0,1,6.085-7.62A11.562,11.562,0,0,1,38.606-497.764Z" fill="#fff"/>
    <path id="Path_28" data-name="Path 28" d="M51.75-183.618a1.447,1.447,0,0,0-.75,1.032,1.239,1.239,0,0,0,1.172,1.208,1.215,1.215,0,0,0,1.114-1.4A1.215,1.215,0,0,0,51.75-183.618Z" transform="translate(-37.893 -289.55)" fill="#fff"/>
    <path id="Path_29" data-name="Path 29" d="M432.654-183.748a1.217,1.217,0,0,0-.586,1.641,1.5,1.5,0,0,0,1.1.574,1.36,1.36,0,0,0,1.043-.9,1.251,1.251,0,0,0-.61-1.254A.875.875,0,0,0,432.654-183.748Z" transform="translate(-374.176 -289.397)" fill="#fff"/>
  </g>
</svg>
