<svg xmlns="http://www.w3.org/2000/svg" width="60.523" height="60" viewBox="0 0 60.523 60">
  <g id="tribune" transform="translate(0 509.622)">
    <path id="Path_24" data-name="Path 24" d="M28.429-509.513a5.251,5.251,0,0,0-3.393,2.79,3.7,3.7,0,0,0-.426,1.927l-.047,1.135-.5.13a2.124,2.124,0,0,0-1.371,1.324,26.486,26.486,0,0,0-.118,3.251c0,2.754.012,2.861.272,3.369a1.984,1.984,0,0,0,1.643,1.052c.307,0,.449.059.5.2.024.118.355,2.1.721,4.409s.745,4.326.827,4.492a2.417,2.417,0,0,0,1.371,1.111l.52.154v2.1l-7.293.035-7.305.024v-3.806l.012-3.818.9-.757a2.8,2.8,0,0,1,1.785-.91,5.315,5.315,0,0,0,4.634-5.367,5.217,5.217,0,0,0-3.038-4.87,5.365,5.365,0,0,0-6.773,1.82,6,6,0,0,0-.946,2.66c0,.355-.272.733-2.21,3.026-1.218,1.442-2.624,3.121-3.133,3.724-1.336,1.584-1.348,1.525.7,3.582,1.643,1.667,1.962,1.88,2.53,1.655a12.877,12.877,0,0,0,1.525-1.147c.686-.579,1.336-1.123,1.454-1.218.189-.154.2,0,.2,2.636v2.79H6.135c-3.428,0-5.4.047-5.556.118-.544.3-.579.579-.579,4.575,0,3.534.012,3.783.236,4.149.13.2.248.39.26.4s1.5.059,3.286.095l3.251.059L7.093-461.4l.059,11.218.284.225a1.046,1.046,0,0,0,1.3.154,1.146,1.146,0,0,0,.567-.638c.106-.307.142-3.192.142-11.324l.012-10.9H51.066l.012,10.9c0,8.133.035,11.017.142,11.324a1.146,1.146,0,0,0,.567.638,1.046,1.046,0,0,0,1.3-.154l.284-.225L53.43-461.4l.059-11.206,3.251-.059c1.785-.035,3.263-.083,3.286-.095s.13-.2.26-.414c.225-.355.236-.6.236-4.137,0-4-.035-4.279-.579-4.575-.154-.071-2.317-.118-6.147-.118H47.874v-2.79a12.22,12.22,0,0,1,.118-2.707c.059.035.709.579,1.442,1.194a12.941,12.941,0,0,0,1.619,1.241c.567.225.887.012,2.53-1.655,2.045-2.057,2.033-2,.7-3.582-.508-.6-1.915-2.281-3.133-3.724-1.939-2.293-2.21-2.672-2.21-3.026a6.013,6.013,0,0,0-.957-2.683,5.369,5.369,0,0,0-6.762-1.8,5.427,5.427,0,0,0-.142,9.681,7.848,7.848,0,0,0,1.608.508,3.161,3.161,0,0,1,1.927.957l.9.757v7.624H30.852v-2.222l.378-.071a2.227,2.227,0,0,0,1.442-1.076,41.969,41.969,0,0,0,.851-4.409c.343-2.2.662-4.149.7-4.35.059-.343.106-.378.65-.426a1.985,1.985,0,0,0,1.584-1.076c.154-.355.189-.875.189-3.416,0-2.66-.024-3.05-.225-3.475a1.985,1.985,0,0,0-1.371-1.04l-.366-.083-.012-.969a5.051,5.051,0,0,0-3.215-4.693A6,6,0,0,0,28.429-509.513Zm2.388,2.494a3.1,3.1,0,0,1,1.277,1.336,3.369,3.369,0,0,1,.13,1.9,8.582,8.582,0,0,1-2.612.142c-2.187,0-2.53-.024-2.589-.189a3.528,3.528,0,0,1,.154-1.891,3.286,3.286,0,0,1,1.56-1.43A3.389,3.389,0,0,1,30.817-507.019Zm3.464,7.932v2.187H24.942v-4.374H34.28Zm-17.022-.225a3.054,3.054,0,0,1,.9,4.6,3.907,3.907,0,0,1-1.832,1.064c-.39.083-.437.047-1.974-1.489-1.738-1.738-1.761-1.773-1.336-2.707A2.985,2.985,0,0,1,17.258-499.311Zm27.625-.095a3.332,3.332,0,0,1,1.69,2.459A9.6,9.6,0,0,1,45-495.15c-1.56,1.56-1.584,1.572-2.01,1.5a4.014,4.014,0,0,1-1.052-.461,3.028,3.028,0,0,1-.969-4.173A3.109,3.109,0,0,1,44.884-499.406Zm-13.015,5.071c-.035.118-.3,1.749-.6,3.641s-.567,3.57-.6,3.747c-.071.331-.071.331-1.064.331a2.42,2.42,0,0,1-.993-.106c0-.047-.26-1.749-.591-3.771s-.591-3.759-.591-3.854c0-.165.3-.189,2.258-.189C31.774-494.536,31.928-494.524,31.869-494.335Zm-19.173.851.934.946-.343.284c-.189.165-1.454,1.229-2.825,2.376l-2.471,2.092-.532-.532c-.485-.5-.52-.556-.355-.745.106-.118,1.158-1.371,2.352-2.79s2.187-2.565,2.234-2.565A9.241,9.241,0,0,1,12.7-493.484Zm37.188,1.631c1.194,1.418,2.246,2.672,2.352,2.79.165.189.13.248-.355.745l-.532.52-2.423-2.033c-1.336-1.123-2.6-2.2-2.825-2.376l-.39-.331.934-.946a9.242,9.242,0,0,1,1-.934C47.7-494.418,48.7-493.259,49.884-491.852Zm8.275,14.516v2.305H2.364v-4.61H58.159Z" fill="#fff"/>
    <path id="Path_25" data-name="Path 25" d="M133.2-151.821c-.366.142-.5.355-.757,1.17a3.506,3.506,0,0,1-2.352,2.506,1.976,1.976,0,0,0-.8.5l-.284.343v3.523c0,3.5,0,3.534.272,3.842a1.161,1.161,0,0,0,.745.378.848.848,0,0,0,.887-.3l.4-.355.035-2.943.035-2.932.65-.343a6.152,6.152,0,0,0,2.246-2.435l.331-.709h18.571l.284.686a7.057,7.057,0,0,0,2.459,2.577l.5.225.012,5.532v5.544l.4.4a1.022,1.022,0,0,0,1.359.236,1.211,1.211,0,0,0,.461-.485,51.013,51.013,0,0,0,.142-6.371c0-6.962.083-6.454-1.147-6.9a3.527,3.527,0,0,1-2.057-1.844,4.539,4.539,0,0,1-.343-.863,1.343,1.343,0,0,0-.142-.449c-.307-.674.106-.65-11.23-.638C138.126-151.928,133.326-151.881,133.2-151.821Z" transform="translate(-113.751 -315.408)" fill="#fff"/>
    <path id="Path_26" data-name="Path 26" d="M129.622-21.746a1.2,1.2,0,0,0-.355,1.832,1.129,1.129,0,0,0,1.773-.095A1.156,1.156,0,0,0,129.622-21.746Z" transform="translate(-113.735 -430.117)" fill="#fff"/>
  </g>
</svg>
